<svg xmlns="http://www.w3.org/2000/svg">
    <symbol id="credits" viewBox="0 0 52 12">
        <path fill-rule="evenodd" clip-rule="evenodd"
            d="M26.9943 10.8553C26.4609 10.0767 26.1943 8.96732 26.1943 7.52731C26.1943 6.08733 26.4609 4.98332 26.9943 4.21532C27.5383 3.43666 28.3116 3.04732 29.3143 3.04732C29.9223 3.04732 30.4396 3.17532 30.8663 3.43132C31.2929 3.67667 31.5703 3.94331 31.6983 4.23132V0.759323C31.6983 0.257996 31.9489 0.00732422 32.4503 0.00732422H33.0103C33.5116 0.00732422 33.7623 0.257996 33.7623 0.759323V11.0953C33.7623 11.5967 33.5116 11.8473 33.0103 11.8473H32.4503C31.9489 11.8473 31.6983 11.5967 31.6983 11.0953V10.8233C31.5703 11.1113 31.2929 11.3833 30.8663 11.6393C30.4396 11.8847 29.9223 12.0073 29.3143 12.0073C28.3116 12.0073 27.5383 11.6233 26.9943 10.8553ZM1.72726 10.5353C0.873932 9.55397 0.447266 8.12463 0.447266 6.2473C0.447266 4.36996 0.873932 2.94064 1.72726 1.9593C2.5806 0.977966 3.80194 0.487305 5.39127 0.487305C6.95926 0.487305 8.16461 0.972641 9.00726 1.9433C9.33792 2.3273 9.27927 2.68465 8.83127 3.0153L8.38327 3.3513C8.21259 3.46864 8.05261 3.5273 7.90326 3.5273C7.71127 3.5273 7.50327 3.42596 7.27927 3.2233C6.76727 2.7433 6.13794 2.5033 5.39127 2.5033C4.46326 2.5033 3.78061 2.81798 3.34326 3.4473C2.9166 4.07664 2.70328 5.00996 2.70328 6.2473C2.70328 7.48463 2.9166 8.41797 3.34326 9.0473C3.78061 9.67664 4.46326 9.9913 5.39127 9.9913C6.13794 9.9913 6.76727 9.7513 7.27927 9.2713C7.48193 9.06863 7.68994 8.9673 7.90326 8.9673C8.05261 8.9673 8.21259 9.02597 8.38327 9.1433L8.83127 9.47929C9.27927 9.80997 9.33792 10.1673 9.00726 10.5513C8.16461 11.522 6.95926 12.0073 5.39127 12.0073C3.80194 12.0073 2.5806 11.5167 1.72726 10.5353ZM10.8438 11.0952V3.95927C10.8438 3.45793 11.0945 3.20728 11.5958 3.20728H12.1558C12.657 3.20728 12.9077 3.45793 12.9077 3.95927V4.16727C12.9185 4.08194 12.9825 3.97527 13.0998 3.84727C13.217 3.7086 13.441 3.56461 13.7718 3.41527C14.113 3.25526 14.5131 3.14861 14.9717 3.09528C15.2065 3.07394 15.3878 3.12727 15.5157 3.25526C15.6544 3.3726 15.7238 3.55394 15.7238 3.79927V4.16727C15.7238 4.62593 15.4731 4.88727 14.9717 4.95126C14.2997 5.03661 13.7878 5.2606 13.4358 5.62328C13.0837 5.98593 12.9077 6.54594 12.9077 7.30327V11.0952C12.9077 11.5966 12.657 11.8472 12.1558 11.8472H11.5958C11.0945 11.8472 10.8438 11.5966 10.8438 11.0952ZM18.0035 10.8553C18.6861 11.6233 19.6355 12.0073 20.8515 12.0073C22.3981 12.0073 23.4915 11.4527 24.1315 10.3433C24.3021 10.0553 24.3235 9.8047 24.1955 9.59137C24.0781 9.36737 23.8381 9.2287 23.4755 9.17537C23.0808 9.11136 22.6968 9.26604 22.3235 9.63936C21.9928 9.97003 21.5395 10.1353 20.9635 10.1353C20.3661 10.1353 19.8968 9.97536 19.5555 9.65536C19.2248 9.32471 19.0595 8.85004 19.0595 8.23137H23.8915C24.4035 8.23137 24.6595 7.9807 24.6595 7.47937C24.6488 6.0287 24.3021 4.93004 23.6195 4.18336C22.9475 3.42604 22.0141 3.04736 20.8195 3.04736C19.6141 3.04736 18.6701 3.43137 17.9875 4.19936C17.3155 4.95671 16.9795 6.0607 16.9795 7.51137C16.9795 8.9727 17.3208 10.0873 18.0035 10.8553ZM36.5899 3.20732C36.0886 3.20732 35.8379 3.45799 35.8379 3.95932V11.0953C35.8379 11.5967 36.0886 11.8473 36.5899 11.8473H37.1499C37.6512 11.8473 37.9019 11.5967 37.9019 11.0953V3.95932C37.9019 3.45799 37.6512 3.20732 37.1499 3.20732H36.5899ZM35.8379 0.759323V1.31932C35.8379 1.82066 36.0886 2.07132 36.5899 2.07132H37.1499C37.6512 2.07132 37.9019 1.82066 37.9019 1.31932V0.759323C37.9019 0.257996 37.6512 0.00732422 37.1499 0.00732422H36.5899C36.0886 0.00732422 35.8379 0.257996 35.8379 0.759323ZM39.1689 4.32733V3.95934C39.1689 3.45801 39.4196 3.20734 39.921 3.20734H40.1609V2.23134C40.1609 1.71933 40.3956 1.37268 40.8649 1.19133L41.5209 0.935333C41.6169 0.89267 41.7236 0.871338 41.8409 0.871338C42.097 0.871338 42.2249 1.04733 42.2249 1.39934V3.20734H43.1049C43.6062 3.20734 43.8569 3.45801 43.8569 3.95934V4.32733C43.8569 4.82867 43.6062 5.07933 43.1049 5.07933H42.2249V9.12733C42.2249 9.41533 42.257 9.62868 42.321 9.76733C42.3957 9.90601 42.545 9.97534 42.769 9.97534H43.1049C43.6062 9.97534 43.8569 10.226 43.8569 10.7273V11.0953C43.8569 11.5967 43.6062 11.8473 43.1049 11.8473H42.881C41.9102 11.8473 41.2116 11.6127 40.7849 11.1433C40.369 10.674 40.1609 10.0713 40.1609 9.33533V5.07933H39.921C39.4196 5.07933 39.1689 4.82867 39.1689 4.32733ZM45.2242 10.5193C45.2029 10.7113 45.2776 10.882 45.4482 11.0313C46.1736 11.682 47.1602 12.0073 48.4083 12.0073C49.3043 12.0073 50.0722 11.7887 50.7122 11.3513C51.3629 10.914 51.6883 10.2527 51.6883 9.36737C51.6883 8.93004 51.6029 8.54604 51.4323 8.21536C51.2722 7.8847 51.0215 7.6127 50.6802 7.39937C50.339 7.17537 50.051 7.01004 49.8163 6.90337C49.5817 6.79671 49.2456 6.67403 48.8083 6.53537C48.3177 6.37537 47.9602 6.23137 47.7362 6.10336C47.5229 5.97536 47.4163 5.79936 47.4163 5.57536C47.4163 5.13803 47.8163 4.91936 48.6162 4.91936C49.0642 4.91936 49.4749 5.01004 49.8482 5.19136C50.0829 5.29803 50.275 5.35136 50.4243 5.35136C50.5949 5.35136 50.7656 5.29271 50.9362 5.17537L51.1923 4.99936C51.4056 4.8607 51.5229 4.69536 51.5443 4.50336C51.5656 4.31137 51.4855 4.1407 51.3043 3.99136C50.5789 3.36203 49.6509 3.04736 48.5203 3.04736C47.6349 3.04736 46.8829 3.26604 46.2643 3.70337C45.6562 4.13004 45.3523 4.7807 45.3523 5.65536C45.3523 6.10336 45.4323 6.49803 45.5923 6.83937C45.7629 7.17003 46.019 7.44736 46.3603 7.67136C46.7015 7.8847 46.9895 8.04471 47.2242 8.15137C47.4695 8.25804 47.8056 8.38071 48.2322 8.51936C48.723 8.67937 49.075 8.82336 49.2882 8.95137C49.5122 9.07936 49.6242 9.25536 49.6242 9.47937C49.6242 9.9167 49.2242 10.1353 48.4243 10.1353C47.9123 10.1353 47.4163 10.0287 46.9362 9.81537C46.7122 9.71936 46.515 9.67136 46.3442 9.67136C46.1523 9.67136 45.9815 9.7247 45.8322 9.83136L45.5763 10.0073C45.3629 10.146 45.2455 10.3167 45.2242 10.5193Z"
            fill="currentColor" />
    </symbol>

    <symbol id="design" viewBox="0 0 50 16">
        <path fill-rule="evenodd" clip-rule="evenodd"
            d="M29.3204 3.36003C28.819 3.36003 28.5684 3.6107 28.5684 4.11203V11.248C28.5684 11.7494 28.819 12 29.3204 12H29.8804C30.3817 12 30.6324 11.7494 30.6324 11.248V4.11203C30.6324 3.6107 30.3817 3.36003 29.8804 3.36003H29.3204ZM28.5684 0.912033V1.47203C28.5684 1.97337 28.819 2.22403 29.3204 2.22403H29.8804C30.3817 2.22403 30.6324 1.97337 30.6324 1.47203V0.912033C30.6324 0.410706 30.3817 0.160034 29.8804 0.160034H29.3204C28.819 0.160034 28.5684 0.410706 28.5684 0.912033ZM0.847656 1.55205V11.248C0.847656 11.7494 1.09833 12 1.59967 12H4.75165C6.29834 12 7.4823 11.5307 8.30365 10.592C9.125 9.65338 9.53564 8.25604 9.53564 6.40004C9.53564 4.54405 9.125 3.14671 8.30365 2.20804C7.4823 1.26938 6.29834 0.800049 4.75165 0.800049H1.59967C1.09833 0.800049 0.847656 1.05072 0.847656 1.55205ZM3.10364 2.81604H4.62366C5.60498 2.81604 6.29297 3.09871 6.68768 3.66405C7.08234 4.22939 7.27966 5.14139 7.27966 6.40004C7.27966 7.65872 7.08234 8.57071 6.68768 9.13605C6.29297 9.70139 5.60498 9.98404 4.62366 9.98404H3.10364V2.81604ZM12.3736 11.008C13.0563 11.776 14.0056 12.16 15.2216 12.16C16.7683 12.16 17.8616 11.6054 18.5016 10.496C18.6723 10.208 18.6936 9.95741 18.5656 9.74408C18.4483 9.52007 18.2083 9.38141 17.8456 9.32808C17.4509 9.26407 17.0669 9.41875 16.6936 9.79207C16.3629 10.1227 15.9096 10.288 15.3336 10.288C14.7363 10.288 14.2669 10.128 13.9256 9.80807C13.5949 9.47742 13.4296 9.00275 13.4296 8.38408H18.2616C18.7736 8.38408 19.0296 8.13341 19.0296 7.63208C19.0189 6.18141 18.6723 5.08275 17.9896 4.33607C17.3176 3.57875 16.3843 3.20007 15.1896 3.20007C13.9843 3.20007 13.0403 3.58408 12.3576 4.35207C11.6856 5.10941 11.3496 6.21341 11.3496 7.66408C11.3496 9.12541 11.6909 10.24 12.3736 11.008ZM20.7246 11.184C20.5539 11.0347 20.4793 10.864 20.5006 10.672C20.5219 10.4694 20.6393 10.2987 20.8526 10.16L21.1086 9.98407C21.2579 9.87741 21.4286 9.82407 21.6206 9.82407C21.7913 9.82407 21.9886 9.87207 22.2126 9.96808C22.6926 10.1814 23.1886 10.288 23.7006 10.288C24.5006 10.288 24.9006 10.0694 24.9006 9.63208C24.9006 9.40807 24.7886 9.23207 24.5646 9.10406C24.3513 8.97607 23.9993 8.83208 23.5086 8.67207C23.0819 8.53342 22.7459 8.41074 22.5006 8.30408C22.2659 8.19742 21.9779 8.03741 21.6366 7.82407C21.2953 7.60007 21.0393 7.32274 20.8686 6.99208C20.7086 6.65074 20.6286 6.25607 20.6286 5.80807C20.6286 4.93341 20.9326 4.28275 21.5406 3.85608C22.1593 3.41875 22.9113 3.20007 23.7966 3.20007C24.9273 3.20007 25.8553 3.51474 26.5806 4.14407C26.7619 4.29341 26.8419 4.46408 26.8206 4.65607C26.7993 4.84807 26.6819 5.01341 26.4686 5.15207L26.2126 5.32808C26.0419 5.44542 25.8713 5.50407 25.7006 5.50407C25.5513 5.50407 25.3593 5.45074 25.1246 5.34407C24.7513 5.16275 24.3406 5.07207 23.8926 5.07207C23.0926 5.07207 22.6926 5.29074 22.6926 5.72807C22.6926 5.95207 22.7993 6.12807 23.0126 6.25607C23.2366 6.38408 23.5939 6.52808 24.0846 6.68808C24.5219 6.82674 24.8579 6.94942 25.0926 7.05608C25.3273 7.16275 25.6153 7.32808 25.9566 7.55208C26.2979 7.76541 26.5486 8.03741 26.7086 8.36807C26.8793 8.69875 26.9646 9.08275 26.9646 9.52008C26.9646 10.4054 26.6393 11.0667 25.9886 11.504C25.3486 11.9414 24.5806 12.16 23.6846 12.16C22.4366 12.16 21.4499 11.8347 20.7246 11.184ZM33.05 11.008C32.5167 10.2294 32.25 9.12007 32.25 7.68007C32.25 6.24007 32.5167 5.13608 33.05 4.36807C33.594 3.58942 34.3727 3.20007 35.386 3.20007C35.994 3.20007 36.506 3.32808 36.922 3.58408C37.3487 3.82941 37.626 4.09607 37.754 4.38408V4.11208C37.754 3.61075 38.0047 3.36008 38.506 3.36008H39.066C39.5674 3.36008 39.818 3.61075 39.818 4.11208V11.936C39.818 12.9814 39.4127 13.8134 38.602 14.432C37.802 15.0508 36.8154 15.36 35.642 15.36C34.746 15.36 33.978 15.1734 33.338 14.8C32.9327 14.5547 32.8847 14.1974 33.194 13.728L33.386 13.44C33.546 13.216 33.7434 13.104 33.978 13.104C34.106 13.104 34.2714 13.1467 34.474 13.232C34.8367 13.4027 35.258 13.488 35.738 13.488C35.994 13.488 36.2607 13.4454 36.538 13.36C36.8154 13.2854 37.0874 13.1147 37.354 12.848C37.6207 12.5814 37.754 12.2454 37.754 11.84V10.976C37.626 11.264 37.3487 11.536 36.922 11.792C36.506 12.0374 35.994 12.16 35.386 12.16C34.3727 12.16 33.594 11.776 33.05 11.008ZM42.7784 3.36008C42.277 3.36008 42.0264 3.61075 42.0264 4.11208V11.248C42.0264 11.7495 42.277 12 42.7784 12H43.3384C43.8397 12 44.0904 11.7495 44.0904 11.248V6.40007C44.0904 5.95207 44.2344 5.62141 44.5223 5.40807C44.8104 5.18407 45.173 5.07207 45.6104 5.07207C46.0477 5.07207 46.4103 5.18407 46.6984 5.40807C46.9864 5.62141 47.1304 5.95207 47.1304 6.40007V11.248C47.1304 11.7495 47.381 12 47.8824 12H48.4424C48.9437 12 49.1944 11.7495 49.1944 11.248V6.35207C49.1944 5.38141 48.917 4.61342 48.3624 4.04808C47.8077 3.48274 47.1144 3.20007 46.2823 3.20007C45.3116 3.20007 44.581 3.57341 44.0904 4.32007V4.11208C44.0904 3.61075 43.8397 3.36008 43.3384 3.36008H42.7784Z"
            fill="currentColor" />
    </symbol>

    <symbol id="development" viewBox="0 0 99 16">
        <path fill-rule="evenodd" clip-rule="evenodd"
            d="M38.9454 0.829712C38.4441 0.829712 38.1934 1.08038 38.1934 1.5817V11.9177C38.1934 12.419 38.4441 12.6697 38.9454 12.6697H39.5054C40.0068 12.6697 40.2574 12.419 40.2574 11.9177V1.5817C40.2574 1.08038 40.0068 0.829712 39.5054 0.829712H38.9454ZM0.294922 11.9177V2.22174C0.294922 1.7204 0.545593 1.46973 1.04694 1.46973H4.19891C5.74561 1.46973 6.9296 1.93906 7.75092 2.87772C8.57227 3.81641 8.98291 5.21371 8.98291 7.06973C8.98291 8.92572 8.57227 10.323 7.75092 11.2617C6.9296 12.2004 5.74561 12.6697 4.19891 12.6697H1.04694C0.545593 12.6697 0.294922 12.419 0.294922 11.9177ZM4.07092 3.48572H2.55093V10.6537H4.07092C5.05225 10.6537 5.74026 10.371 6.13492 9.80573C6.5296 9.24039 6.72693 8.3284 6.72693 7.06973C6.72693 5.81107 6.5296 4.89905 6.13492 4.33374C5.74026 3.7684 5.05225 3.48572 4.07092 3.48572ZM14.6699 12.8297C13.4539 12.8297 12.5045 12.4457 11.8218 11.6777C11.1392 10.9097 10.7979 9.7951 10.7979 8.33374C10.7979 6.88309 11.1339 5.77908 11.8058 5.02176C12.4885 4.25375 13.4325 3.86975 14.6378 3.86975C15.8325 3.86975 16.7658 4.24841 17.4379 5.00574C18.1205 5.75241 18.4672 6.8511 18.4778 8.30176C18.4778 8.8031 18.2219 9.05374 17.7098 9.05374H12.8778C12.8778 9.67242 13.0432 10.147 13.3738 10.4778C13.7151 10.7977 14.1844 10.9577 14.7819 10.9577C15.3578 10.9577 15.8112 10.7924 16.1418 10.4617C16.5152 10.0884 16.8991 9.93375 17.2939 9.99774C17.6565 10.0511 17.8965 10.1897 18.0139 10.4137C18.1418 10.627 18.1205 10.8777 17.9499 11.1657C17.3098 12.2751 16.2165 12.8297 14.6699 12.8297ZM20.349 4.02979C19.8476 4.02979 19.6716 4.26978 19.821 4.74979L22.045 11.9498C22.1943 12.4298 22.5196 12.6698 23.021 12.6698H23.885C24.3863 12.6698 24.7116 12.4298 24.861 11.9498L27.085 4.74979C27.2343 4.26978 27.0583 4.02979 26.557 4.02979H25.789C25.373 4.02979 25.1063 4.22711 24.989 4.6218L23.453 9.70978L21.917 4.6218C21.7996 4.22711 21.533 4.02979 21.117 4.02979H20.349ZM32.4667 12.8297C31.2507 12.8297 30.3014 12.4457 29.6187 11.6777C28.9361 10.9097 28.5947 9.7951 28.5947 8.33374C28.5947 6.88309 28.9307 5.77908 29.6027 5.02176C30.2854 4.25375 31.2294 3.86975 32.4347 3.86975C33.6294 3.86975 34.5627 4.24841 35.2347 5.00574C35.9174 5.75241 36.2641 6.8511 36.2747 8.30176C36.2747 8.8031 36.0187 9.05374 35.5067 9.05374H30.6747C30.6747 9.67242 30.8401 10.147 31.1707 10.4778C31.5121 10.7977 31.9814 10.9577 32.5787 10.9577C33.1547 10.9577 33.6081 10.7924 33.9387 10.4617C34.3121 10.0884 34.6961 9.93375 35.0907 9.99774C35.4534 10.0511 35.6934 10.1897 35.8107 10.4137C35.9387 10.627 35.9174 10.8777 35.7467 11.1657C35.1067 12.2751 34.0134 12.8297 32.4667 12.8297ZM33.5867 6.17374C33.2667 5.88574 32.8827 5.74176 32.4347 5.74176C31.9867 5.74176 31.6027 5.88574 31.2827 6.17374C30.9627 6.45108 30.7761 6.8031 30.7227 7.22974H34.1467C34.0934 6.8031 33.9067 6.45108 33.5867 6.17374ZM49.032 11.6777C48.3493 12.4457 47.4107 12.8297 46.216 12.8297C45.0213 12.8297 44.0827 12.4457 43.4 11.6777C42.7173 10.9097 42.376 9.80042 42.376 8.34976C42.376 6.89908 42.7173 5.78976 43.4 5.02176C44.0827 4.25375 45.0213 3.86975 46.216 3.86975C47.4107 3.86975 48.3493 4.25375 49.032 5.02176C49.7147 5.78976 50.056 6.89908 50.056 8.34976C50.056 9.80042 49.7147 10.9097 49.032 11.6777ZM52.8829 4.02975C52.3815 4.02975 52.1309 4.28043 52.1309 4.78174V15.1177C52.1309 15.619 52.3815 15.8698 52.8829 15.8698H53.4429C53.9443 15.8698 54.1949 15.619 54.1949 15.1177V11.6458C54.3229 11.9337 54.6003 12.2057 55.0269 12.4617C55.4536 12.707 55.9709 12.8297 56.5789 12.8297C57.5815 12.8297 58.3495 12.4457 58.8829 11.6777C59.4269 10.899 59.6989 9.78976 59.6989 8.34976C59.6989 6.90976 59.4269 5.80576 58.8829 5.03775C58.3495 4.25909 57.5815 3.86975 56.5789 3.86975C55.9709 3.86975 55.4536 3.99774 55.0269 4.25375C54.6003 4.49908 54.3229 4.76575 54.1949 5.05374V4.78174C54.1949 4.28043 53.9443 4.02975 53.4429 4.02975H52.8829ZM54.1949 8.34976C54.1949 6.61108 54.7709 5.74176 55.9229 5.74176C57.0643 5.74176 57.6349 6.61108 57.6349 8.34976C57.6349 10.0884 57.0643 10.9577 55.9229 10.9577C54.7709 10.9577 54.1949 10.0884 54.1949 8.34976ZM61.5996 4.78174C61.5996 4.28043 61.8503 4.02975 62.3516 4.02975H62.9116C63.4129 4.02975 63.6636 4.28043 63.6636 4.78174V4.98975C64.1543 4.2431 64.8476 3.86975 65.7436 3.86975C66.7676 3.86975 67.5249 4.30176 68.0156 5.16574C68.4636 4.30176 69.2209 3.86975 70.2876 3.86975C71.1196 3.86975 71.7969 4.15244 72.3196 4.71774C72.8423 5.27243 73.1036 6.04044 73.1036 7.02176V11.9178C73.1036 12.419 72.8529 12.6697 72.3516 12.6697H71.7916C71.2903 12.6697 71.0396 12.419 71.0396 11.9178V7.06976C71.0396 6.18442 70.6023 5.74176 69.7276 5.74176C68.8316 5.74176 68.3836 6.18442 68.3836 7.06976V11.9178C68.3836 12.419 68.1329 12.6697 67.6316 12.6697H67.0716C66.5703 12.6697 66.3196 12.419 66.3196 11.9178V7.06976C66.3196 6.18442 65.8823 5.74176 65.0076 5.74176C64.1116 5.74176 63.6636 6.18442 63.6636 7.06976V11.9178C63.6636 12.419 63.4129 12.6697 62.9116 12.6697H62.3516C61.8503 12.6697 61.5996 12.419 61.5996 11.9178V4.78174ZM76.2281 11.6777C76.9108 12.4457 77.8601 12.8297 79.0761 12.8297C80.6228 12.8297 81.7161 12.2751 82.3561 11.1657C82.5268 10.8777 82.5481 10.627 82.4201 10.4137C82.3028 10.1897 82.0628 10.0511 81.7001 9.99774C81.3054 9.93375 80.9214 10.0884 80.5481 10.4617C80.2174 10.7924 79.7641 10.9577 79.1881 10.9577C78.5908 10.9577 78.1214 10.7977 77.7801 10.4778C77.4494 10.147 77.2841 9.67242 77.2841 9.05374H82.1161C82.6281 9.05374 82.8841 8.8031 82.8841 8.30176C82.8734 6.8511 82.5268 5.75241 81.8441 5.00574C81.1721 4.24841 80.2388 3.86975 79.0441 3.86975C77.8388 3.86975 76.8948 4.25375 76.2121 5.02176C75.5401 5.77908 75.2041 6.88309 75.2041 8.33374C75.2041 9.7951 75.5454 10.9097 76.2281 11.6777ZM79.0441 5.74176C79.4921 5.74176 79.8761 5.88574 80.1961 6.17374C80.5161 6.45108 80.7028 6.8031 80.7561 7.22974H77.3321C77.3854 6.8031 77.5721 6.45108 77.8921 6.17374C78.2121 5.88574 78.5961 5.74176 79.0441 5.74176ZM84.7705 4.78174C84.7705 4.28043 85.0212 4.02975 85.5225 4.02975H86.0825C86.5838 4.02975 86.8345 4.28043 86.8345 4.78174V4.98975C87.3252 4.2431 88.0558 3.86975 89.0265 3.86975C89.8585 3.86975 90.5518 4.15244 91.1065 4.71774C91.6612 5.28308 91.9385 6.05109 91.9385 7.02176V11.9178C91.9385 12.419 91.6878 12.6697 91.1865 12.6697H90.6265C90.1252 12.6697 89.8745 12.419 89.8745 11.9178V7.06976C89.8745 6.62177 89.7305 6.29108 89.4425 6.07776C89.1545 5.85376 88.7918 5.74176 88.3545 5.74176C87.9172 5.74176 87.5545 5.85376 87.2665 6.07776C86.9785 6.29108 86.8345 6.62177 86.8345 7.06976V11.9178C86.8345 12.419 86.5838 12.6697 86.0825 12.6697H85.5225C85.0212 12.6697 84.7705 12.419 84.7705 11.9178V4.78174ZM93.3936 4.78174V5.14972C93.3936 5.65106 93.6442 5.90173 94.1456 5.90173H94.3856V10.1577C94.3856 10.8937 94.5936 11.4964 95.0095 11.9657C95.4362 12.435 96.1348 12.6697 97.1055 12.6697H97.3295C97.8309 12.6697 98.0815 12.419 98.0815 11.9177V11.5497C98.0815 11.0484 97.8309 10.7977 97.3295 10.7977H96.9935C96.7695 10.7977 96.6201 10.7284 96.5455 10.5897C96.4816 10.451 96.4496 10.2377 96.4496 9.94974V5.90173H97.3295C97.8309 5.90173 98.0815 5.65106 98.0815 5.14972V4.78174C98.0815 4.2804 97.8309 4.02972 97.3295 4.02972H96.4496V2.22174C96.4496 1.86972 96.3215 1.69373 96.0656 1.69373C95.9482 1.69373 95.8416 1.71506 95.7455 1.75772L95.0895 2.01373C94.6202 2.19507 94.3856 2.54172 94.3856 3.05371V4.02972H94.1456C93.6442 4.02972 93.3936 4.2804 93.3936 4.78174Z"
            fill="currentColor" />
    </symbol>
    <symbol id="download" viewBox="0 0 141 11">
        <path fill-rule="evenodd" clip-rule="evenodd"
            d="M45.8467 0.703766C45.8467 0.28598 46.0556 0.0770874 46.4733 0.0770874H46.94C47.3578 0.0770874 47.5667 0.28598 47.5667 0.703766V3.54376C47.9222 2.92154 48.4911 2.61041 49.2733 2.61041C49.9933 2.61041 50.5756 2.84598 51.02 3.31708C51.4645 3.7793 51.6867 4.41931 51.6867 5.23709V9.31708C51.6867 9.73486 51.4778 9.94376 51.06 9.94376H50.5933C50.1756 9.94376 49.9667 9.73486 49.9667 9.31708V5.2771C49.9667 4.90375 49.86 4.6282 49.6467 4.45041C49.4333 4.26376 49.1445 4.17041 48.78 4.17041C48.4156 4.17041 48.1222 4.26376 47.9 4.45041C47.6778 4.6282 47.5667 4.90375 47.5667 5.2771V9.31708C47.5667 9.73486 47.3578 9.94376 46.94 9.94376H46.4733C46.0556 9.94376 45.8467 9.73486 45.8467 9.31708V0.703766ZM15.5938 5.27704C15.5938 6.83261 15.9315 8.02371 16.6071 8.85037C17.2827 9.66815 18.2737 10.0771 19.5804 10.0771C20.2382 10.0771 20.847 9.96594 21.407 9.74371C21.976 9.52148 22.4514 9.17038 22.8337 8.69037C23.2159 8.21039 23.407 7.64148 23.407 6.9837V5.29037C23.407 4.87259 23.1982 4.66373 22.7803 4.66373H20.9004C20.5537 4.66373 20.3271 4.82816 20.2203 5.15704L20.0204 5.74371C19.8781 6.14371 20.0204 6.34372 20.4471 6.34372H21.527V7.34372C21.3227 7.71704 21.087 7.98816 20.8203 8.15704C20.5627 8.31705 20.1714 8.39706 19.6471 8.39706C18.8648 8.39706 18.3048 8.13037 17.967 7.59705C17.6382 7.05484 17.4738 6.28149 17.4738 5.27704C17.4738 4.2637 17.6382 3.49039 17.967 2.95706C18.296 2.42371 18.856 2.15704 19.6471 2.15704C20.2781 2.15704 20.7581 2.33038 21.087 2.67706C21.3538 2.95261 21.6292 3.09039 21.9138 3.09039H22.7538C22.9582 3.09039 23.0959 3.03705 23.1671 2.93039C23.247 2.8237 23.247 2.68149 23.1671 2.50372C22.8648 1.82816 22.4293 1.3215 21.8604 0.983704C21.3004 0.645935 20.5403 0.477051 19.5804 0.477051C18.2827 0.477051 17.2914 0.890381 16.6071 1.71704C15.9315 2.53482 15.5938 3.7215 15.5938 5.27704ZM25.7576 9.1171C26.3265 9.75708 27.1176 10.0771 28.131 10.0771C29.4199 10.0771 30.331 9.61487 30.8643 8.6904C31.0065 8.45041 31.0243 8.24152 30.9176 8.06375C30.8199 7.87708 30.6199 7.76154 30.3176 7.71707C29.9888 7.66376 29.6688 7.79263 29.3576 8.10373C29.0821 8.3793 28.7043 8.51709 28.2243 8.51709C27.7265 8.51709 27.3354 8.38373 27.051 8.1171C26.7754 7.84152 26.6376 7.44598 26.6376 6.93042H30.6643C31.091 6.93042 31.3043 6.72153 31.3043 6.30374C31.2954 5.09485 31.0065 4.17929 30.4376 3.55707C29.8776 2.92596 29.0999 2.61041 28.1043 2.61041C27.0999 2.61041 26.3132 2.93042 25.7443 3.5704C25.1843 4.20151 24.9043 5.12152 24.9043 6.33041C24.9043 7.54819 25.1888 8.47708 25.7576 9.1171ZM28.1043 4.17041C28.4776 4.17041 28.7976 4.29041 29.0643 4.53043C29.331 4.76154 29.4865 5.05487 29.531 5.4104H26.6776C26.7221 5.05487 26.8776 4.76154 27.1443 4.53043C27.411 4.29041 27.731 4.17041 28.1043 4.17041ZM32.2236 3.67712V3.37045C32.2236 2.95267 32.4325 2.74377 32.8502 2.74377H33.0502V1.93045C33.0502 1.50378 33.2458 1.2149 33.6369 1.06378L34.1836 0.850464C34.2636 0.814911 34.3525 0.797119 34.4502 0.797119C34.6636 0.797119 34.7702 0.943787 34.7702 1.23712V2.74377H35.5036C35.9214 2.74377 36.1302 2.95267 36.1302 3.37045V3.67712C36.1302 4.09491 35.9214 4.30377 35.5036 4.30377H34.7702V7.67712C34.7702 7.91711 34.7969 8.09491 34.8502 8.21045C34.9125 8.32602 35.0369 8.38379 35.2236 8.38379H35.5036C35.9214 8.38379 36.1302 8.59268 36.1302 9.01044V9.31711C36.1302 9.73489 35.9214 9.94379 35.5036 9.94379H35.3169C34.508 9.94379 33.9258 9.74823 33.5703 9.35712C33.2236 8.966 33.0502 8.46378 33.0502 7.85046V4.30377H32.8502C32.4325 4.30377 32.2236 4.09491 32.2236 3.67712ZM40.4268 3.37045V3.67712C40.4268 4.09491 40.6357 4.30377 41.0535 4.30377H41.2534V7.85046C41.2534 8.46378 41.4268 8.966 41.7735 9.35712C42.129 9.74823 42.7112 9.94379 43.5201 9.94379H43.7068C44.1245 9.94379 44.3335 9.73489 44.3335 9.31711V9.01044C44.3335 8.59268 44.1245 8.38379 43.7068 8.38379H43.4268C43.2401 8.38379 43.1157 8.32602 43.0535 8.21045C43.0001 8.09491 42.9734 7.91711 42.9734 7.67712V4.30377H43.7068C44.1245 4.30377 44.3335 4.09491 44.3335 3.67712V3.37045C44.3335 2.95267 44.1245 2.74377 43.7068 2.74377H42.9734V1.23712C42.9734 0.943787 42.8668 0.797119 42.6534 0.797119C42.5899 0.797119 42.5302 0.804626 42.4742 0.819641C42.4439 0.827728 42.4148 0.838013 42.3867 0.850464L41.8401 1.06378C41.4489 1.2149 41.2534 1.50378 41.2534 1.93045V2.74377H41.0535C40.6357 2.74377 40.4268 2.95267 40.4268 3.37045ZM54.2469 9.1171C54.8158 9.75708 55.6068 10.0771 56.6202 10.0771C57.9091 10.0771 58.8203 9.61487 59.3535 8.6904C59.4958 8.45041 59.5135 8.24152 59.4069 8.06375C59.3091 7.87708 59.109 7.76154 58.8069 7.71707C58.478 7.66376 58.158 7.79263 57.8469 8.10373C57.5714 8.3793 57.1935 8.51709 56.7136 8.51709C56.2158 8.51709 55.8246 8.38373 55.5403 8.1171C55.2646 7.84152 55.1269 7.44598 55.1269 6.93042H59.1536C59.5803 6.93042 59.7935 6.72153 59.7935 6.30374C59.7846 5.09485 59.4958 4.17929 58.9268 3.55707C58.3669 2.92596 57.5891 2.61041 56.5936 2.61041C55.5891 2.61041 54.8025 2.93042 54.2336 3.5704C53.6736 4.20151 53.3936 5.12152 53.3936 6.33041C53.3936 7.54819 53.6779 8.47708 54.2469 9.1171ZM64.67 9.26373C64.5278 9.13931 64.4656 8.99707 64.4834 8.8371C64.5011 8.66818 64.5989 8.52597 64.7767 8.4104L64.9901 8.26373C65.1145 8.17487 65.2567 8.1304 65.4167 8.1304C65.5589 8.1304 65.7234 8.17041 65.91 8.25043C66.3101 8.42819 66.7234 8.51709 67.1501 8.51709C67.8167 8.51709 68.1501 8.33487 68.1501 7.9704C68.1501 7.78375 68.0567 7.63708 67.8701 7.53043C67.6924 7.42374 67.3989 7.30374 66.9901 7.17041C66.6346 7.05487 66.3546 6.95264 66.1501 6.86374C65.9545 6.77487 65.7145 6.64151 65.4301 6.46375C65.1456 6.27707 64.9323 6.04596 64.79 5.77042C64.6567 5.48596 64.59 5.15707 64.59 4.78375C64.59 4.05487 64.8434 3.51263 65.35 3.15707C65.8656 2.79263 66.4923 2.61041 67.23 2.61041C68.1723 2.61041 68.9456 2.87262 69.55 3.39709C69.7011 3.52151 69.7679 3.66376 69.75 3.82373C69.7323 3.98373 69.6346 4.12152 69.4568 4.23709L69.2434 4.38373C69.1011 4.48154 68.959 4.53043 68.8167 4.53043C68.6924 4.53043 68.5323 4.48596 68.3367 4.39709C68.0256 4.24597 67.6834 4.17041 67.31 4.17041C66.6434 4.17041 66.31 4.35263 66.31 4.71707C66.31 4.90375 66.3989 5.05042 66.5768 5.15707C66.7634 5.26373 67.0612 5.38373 67.47 5.51709C67.8345 5.63263 68.1145 5.73486 68.31 5.82373C68.5056 5.91263 68.7456 6.05042 69.03 6.23709C69.3145 6.41486 69.5234 6.64151 69.6567 6.91708C69.799 7.19263 69.8701 7.51263 69.8701 7.87708C69.8701 8.61487 69.5989 9.16599 69.0567 9.53043C68.5234 9.89487 67.8835 10.0771 67.1367 10.0771C66.0967 10.0771 65.2745 9.80597 64.67 9.26373ZM74.4324 10.0771C75.428 10.0771 76.2102 9.75708 76.7791 9.1171C77.348 8.47708 77.6324 7.55264 77.6324 6.34375C77.6324 5.13486 77.348 4.21042 76.7791 3.5704C76.2102 2.93042 75.428 2.61041 74.4324 2.61041C73.4369 2.61041 72.6547 2.93042 72.0858 3.5704C71.5169 4.21042 71.2324 5.13486 71.2324 6.34375C71.2324 7.55264 71.5169 8.47708 72.0858 9.1171C72.6547 9.75708 73.4369 10.0771 74.4324 10.0771ZM81.7089 10.0771C81.0155 10.0771 80.4378 9.84155 79.9755 9.37045C79.5133 8.89932 79.2822 8.25934 79.2822 7.45044V3.37045C79.2822 2.95267 79.4911 2.74377 79.9089 2.74377H80.3755C80.7933 2.74377 81.0022 2.95267 81.0022 3.37045V7.41043C81.0022 7.78378 81.1222 8.06378 81.3622 8.25046C81.6022 8.42822 81.9044 8.51712 82.2689 8.51712C82.6333 8.51712 82.9355 8.42822 83.1755 8.25046C83.4155 8.06378 83.5355 7.78378 83.5355 7.41043V3.37045C83.5355 2.95267 83.7444 2.74377 84.1622 2.74377H84.6289C85.0466 2.74377 85.2555 2.95267 85.2555 3.37045V9.31711C85.2555 9.73489 85.0466 9.94379 84.6289 9.94379H84.1622C83.7444 9.94379 83.5355 9.73489 83.5355 9.31711V9.14377C83.1266 9.76599 82.5178 10.0771 81.7089 10.0771ZM87.7233 2.74374C87.3056 2.74374 87.0967 2.95264 87.0967 3.37042V9.31708C87.0967 9.73486 87.3056 9.94376 87.7233 9.94376H88.19C88.6078 9.94376 88.8167 9.73486 88.8167 9.31708V6.15707C88.8167 5.52597 88.9633 5.0593 89.2567 4.75708C89.55 4.45486 89.9767 4.26819 90.5367 4.19708C90.9545 4.14374 91.1633 3.92596 91.1633 3.54373V3.23709C91.1633 3.03262 91.1056 2.88153 90.99 2.78375C90.8833 2.67709 90.7322 2.63263 90.5367 2.65042C90.1545 2.69485 89.8211 2.78375 89.5367 2.91708C89.2611 3.04153 89.0745 3.16153 88.9767 3.2771C88.8789 3.38376 88.8256 3.47263 88.8167 3.54373V3.37042C88.8167 2.95264 88.6078 2.74374 88.19 2.74374H87.7233ZM93.0353 9.1304C92.4753 8.49042 92.1953 7.56152 92.1953 6.34375C92.1953 5.12598 92.4753 4.20151 93.0353 3.5704C93.6041 2.93042 94.3997 2.61041 95.4219 2.61041C96.613 2.61041 97.4753 3.0282 98.0086 3.86374C98.1153 4.03262 98.1419 4.1882 98.0886 4.33041C98.0353 4.46375 97.9064 4.56598 97.7019 4.63708L97.1819 4.8371C96.8975 4.95264 96.6175 4.85931 96.3419 4.55707C96.1108 4.29932 95.8041 4.17041 95.4219 4.17041C94.9508 4.17041 94.5819 4.35709 94.3153 4.73041C94.0486 5.10373 93.9153 5.64151 93.9153 6.34375C93.9153 7.04596 94.0486 7.58374 94.3153 7.95709C94.5819 8.33041 94.9508 8.51709 95.4219 8.51709C95.8041 8.51709 96.1108 8.38818 96.3419 8.1304C96.6175 7.82819 96.8975 7.73486 97.1819 7.8504L97.7019 8.05042C97.9064 8.12152 98.0353 8.22818 98.0886 8.37042C98.1419 8.50375 98.1153 8.65488 98.0086 8.82373C97.4753 9.6593 96.613 10.0771 95.4219 10.0771C94.3997 10.0771 93.6041 9.76154 93.0353 9.1304ZM100.224 9.1171C100.793 9.75708 101.584 10.0771 102.597 10.0771C103.886 10.0771 104.797 9.61487 105.331 8.6904C105.473 8.45041 105.491 8.24152 105.384 8.06375C105.286 7.87708 105.086 7.76154 104.784 7.71707C104.455 7.66376 104.135 7.79263 103.824 8.10373C103.548 8.3793 103.171 8.51709 102.691 8.51709C102.193 8.51709 101.802 8.38373 101.517 8.1171C101.242 7.84152 101.104 7.44598 101.104 6.93042H105.131C105.557 6.93042 105.771 6.72153 105.771 6.30374C105.762 5.09485 105.473 4.17929 104.904 3.55707C104.344 2.92596 103.566 2.61041 102.571 2.61041C101.566 2.61041 100.779 2.93042 100.211 3.5704C99.6501 4.20151 99.3701 5.12152 99.3701 6.33041C99.3701 7.54819 99.6546 8.47708 100.224 9.1171ZM102.571 4.17041C102.944 4.17041 103.264 4.29041 103.531 4.53043C103.797 4.76154 103.953 5.05487 103.997 5.4104H101.144C101.188 5.05487 101.344 4.76154 101.611 4.53043C101.877 4.29041 102.197 4.17041 102.571 4.17041ZM111.473 9.1304C110.913 8.49042 110.633 7.56152 110.633 6.34375C110.633 5.12598 110.913 4.20151 111.473 3.5704C112.042 2.93042 112.838 2.61041 113.86 2.61041C115.051 2.61041 115.913 3.0282 116.447 3.86374C116.553 4.03262 116.58 4.1882 116.527 4.33041C116.473 4.46375 116.344 4.56598 116.14 4.63708L115.62 4.8371C115.335 4.95264 115.055 4.85931 114.78 4.55707C114.549 4.29932 114.242 4.17041 113.86 4.17041C113.389 4.17041 113.02 4.35709 112.753 4.73041C112.487 5.10373 112.353 5.64151 112.353 6.34375C112.353 7.04596 112.487 7.58374 112.753 7.95709C113.02 8.33041 113.389 8.51709 113.86 8.51709C114.242 8.51709 114.549 8.38818 114.78 8.1304C115.055 7.82819 115.335 7.73486 115.62 7.8504L116.14 8.05042C116.344 8.12152 116.473 8.22818 116.527 8.37042C116.58 8.50375 116.553 8.65488 116.447 8.82373C115.913 9.6593 115.051 10.0771 113.86 10.0771C112.838 10.0771 112.042 9.76154 111.473 9.1304ZM121.008 10.0771C122.004 10.0771 122.786 9.75708 123.355 9.1171C123.924 8.47708 124.208 7.55264 124.208 6.34375C124.208 5.13486 123.924 4.21042 123.355 3.5704C122.786 2.93042 122.004 2.61041 121.008 2.61041C120.012 2.61041 119.23 2.93042 118.661 3.5704C118.092 4.21042 117.808 5.13486 117.808 6.34375C117.808 7.55264 118.092 8.47708 118.661 9.1171C119.23 9.75708 120.012 10.0771 121.008 10.0771ZM119.528 6.34375C119.528 5.64151 119.657 5.10373 119.915 4.73041C120.181 4.35709 120.546 4.17041 121.008 4.17041C121.461 4.17041 121.821 4.36151 122.088 4.74374C122.355 5.1171 122.488 5.65042 122.488 6.34375C122.488 7.03708 122.355 7.57486 122.088 7.95709C121.821 8.33041 121.461 8.51709 121.008 8.51709C120.546 8.51709 120.181 8.33041 119.915 7.95709C119.657 7.58374 119.528 7.04596 119.528 6.34375ZM126.284 9.1171C125.84 8.4682 125.617 7.54376 125.617 6.34375C125.617 5.14374 125.84 4.22375 126.284 3.58374C126.737 2.93488 127.382 2.61041 128.217 2.61041C128.724 2.61041 129.155 2.7171 129.511 2.93042C129.866 3.13486 130.097 3.35709 130.204 3.59708V0.703766C130.204 0.28598 130.413 0.0770874 130.831 0.0770874H131.297C131.715 0.0770874 131.924 0.28598 131.924 0.703766V9.31708C131.924 9.73486 131.715 9.94376 131.297 9.94376H130.831C130.413 9.94376 130.204 9.73486 130.204 9.31708V9.09042C130.097 9.33041 129.866 9.5571 129.511 9.77042C129.155 9.97488 128.724 10.0771 128.217 10.0771C127.382 10.0771 126.737 9.75708 126.284 9.1171ZM134.534 9.1171C135.103 9.75708 135.894 10.0771 136.907 10.0771C138.196 10.0771 139.107 9.61487 139.64 8.6904C139.783 8.45041 139.8 8.24152 139.694 8.06375C139.596 7.87708 139.396 7.76154 139.094 7.71707C138.765 7.66376 138.445 7.79263 138.134 8.10373C137.858 8.3793 137.48 8.51709 137 8.51709C136.503 8.51709 136.112 8.38373 135.827 8.1171C135.552 7.84152 135.414 7.44598 135.414 6.93042H139.44C139.867 6.93042 140.08 6.72153 140.08 6.30374C140.072 5.09485 139.783 4.17929 139.214 3.55707C138.654 2.92596 137.876 2.61041 136.88 2.61041C135.876 2.61041 135.089 2.93042 134.52 3.5704C133.96 4.20151 133.68 5.12152 133.68 6.33041C133.68 7.54819 133.965 8.47708 134.534 9.1171ZM136.88 4.17041C137.254 4.17041 137.574 4.29041 137.84 4.53043C138.107 4.76154 138.263 5.05487 138.307 5.4104H135.454C135.498 5.05487 135.654 4.76154 135.92 4.53043C136.187 4.29041 136.507 4.17041 136.88 4.17041Z"
            fill="currentColor" />
        <path fill-rule="evenodd" clip-rule="evenodd"
            d="M5.48768 0.632751C6.14363 0.632751 6.67539 1.16451 6.67539 1.82047V2.40274C6.67636 2.41002 6.67784 2.42195 6.68003 2.43702C6.68046 2.43995 6.68094 2.44325 6.68148 2.44691C6.68938 2.50046 6.70848 2.62996 6.70931 2.77613C6.71019 2.78187 6.71359 2.80659 6.72484 2.8697C6.72573 2.8747 6.72672 2.8802 6.7278 2.88615C6.74354 2.97327 6.77721 3.15967 6.77721 3.36659V4.27918C6.77721 4.52608 6.73106 4.72542 6.70515 4.83345C6.69868 4.86041 6.69425 4.87847 6.69084 4.89236C6.68582 4.91282 6.68301 4.92425 6.67919 4.94175C6.67736 4.95015 6.67647 4.95495 6.67611 4.95698C6.66796 5.03608 6.66928 5.09293 6.67168 5.19538C6.67329 5.26451 6.67539 5.35441 6.67539 5.48592C6.67539 5.54637 6.673 5.67839 6.66919 5.85285C6.68022 5.84173 6.69151 5.83041 6.70305 5.81887C6.883 5.63892 7.07923 5.52172 7.1665 5.4696C7.169 5.46811 7.17141 5.46667 7.17373 5.46528C7.25186 5.41856 7.27529 5.40378 7.27818 5.4024C7.33248 5.35764 7.3824 5.32406 7.42065 5.30033C7.46186 5.27477 7.49914 5.25472 7.52881 5.23976C7.58631 5.21075 7.63763 5.18961 7.67048 5.17664C7.69072 5.16866 7.71005 5.16141 7.72675 5.15529C8.06708 4.93893 8.50917 4.90135 8.89614 5.09484C9.48285 5.38819 9.72066 6.10162 9.4273 6.68832C9.31532 6.91229 9.16205 7.04862 9.07814 7.11466C8.98712 7.18629 8.9025 7.23329 8.84988 7.26029C8.76228 7.30524 8.67748 7.33757 8.63172 7.3543C8.60256 7.3744 8.57539 7.39221 8.55102 7.40775C8.49984 7.44041 8.44415 7.47351 8.41027 7.49364C8.40353 7.49765 8.39765 7.50114 8.39284 7.50402C8.37568 7.51428 8.36303 7.5221 8.35413 7.52772C8.32682 7.55598 8.29457 7.59031 8.25799 7.62925C8.04872 7.85198 7.69779 8.2255 7.32118 8.47658C7.23692 8.53275 7.18425 8.57769 7.10056 8.6491C7.03421 8.70573 6.94835 8.77899 6.81177 8.88769C6.5806 9.07167 6.20667 9.34646 5.71163 9.47022C5.47903 9.52837 5.17938 9.555 4.85881 9.45243C4.53615 9.3492 4.32765 9.15786 4.21084 9.02886C4.15527 8.96749 4.11184 8.91042 4.08769 8.87821C4.0809 8.86916 4.07561 8.86207 4.0714 8.85642C4.06272 8.85179 4.0523 8.84653 4.03972 8.84053C4.01393 8.82823 3.98213 8.81423 3.93615 8.79493L3.89021 8.77586C3.86864 8.77188 3.84507 8.76705 3.82042 8.76125C3.72957 8.73985 3.6088 8.70209 3.4784 8.63096C3.34674 8.55915 3.24531 8.474 3.1692 8.39528C3.13857 8.37998 3.10374 8.36179 3.06756 8.3412C3.00065 8.30312 2.91353 8.24829 2.822 8.17212L2.80963 8.1637C2.7973 8.15535 2.77832 8.14248 2.75795 8.1282C2.72023 8.10177 2.65293 8.05348 2.58147 7.98978C2.56327 7.97355 2.54132 7.95332 2.51702 7.92904C2.49779 7.91756 2.47667 7.90445 2.45436 7.88972C2.41078 7.86095 2.35936 7.82389 2.30503 7.77733C2.26719 7.74489 2.23855 7.72306 2.19297 7.68832C2.15815 7.66178 2.11346 7.62771 2.04723 7.57563C1.94507 7.4953 1.79649 7.37453 1.65367 7.21969C1.12798 7.09731 0.736328 6.62583 0.736328 6.06288C0.736328 5.40693 1.26809 4.87517 1.92405 4.87517C2.32583 4.87517 2.65251 5.02891 2.84924 5.14674C3.06093 5.27353 3.25182 5.43664 3.40051 5.61C3.40051 5.61 3.4075 5.61774 3.42568 5.63407C3.44649 5.65276 3.47467 5.67621 3.51559 5.70839C3.5443 5.73097 3.56875 5.74971 3.5981 5.7722C3.61619 5.78608 3.63616 5.80138 3.66014 5.81989C3.69287 5.84516 3.73074 5.87466 3.77078 5.90708C3.81283 5.92944 3.90302 5.97869 4.00018 6.05364C4.05815 6.09835 4.12411 6.15625 4.18969 6.22967C4.2076 6.24209 4.23175 6.25913 4.25824 6.27907C4.26248 6.28226 4.26696 6.28566 4.27166 6.28927L4.28269 6.29435C4.29263 5.8891 4.29996 5.56953 4.29996 5.48592C4.29996 5.46527 4.2993 5.43414 4.29847 5.39518C4.29507 5.23554 4.28886 4.94449 4.31403 4.70542C4.32523 4.599 4.34268 4.50727 4.35834 4.43549C4.36891 4.387 4.383 4.32947 4.39075 4.29777C4.3927 4.28983 4.39425 4.28351 4.39524 4.27936C4.39824 4.26687 4.40034 4.25754 4.40178 4.2509V3.37916C4.40066 3.37206 4.39697 3.34658 4.38627 3.28658C4.38545 3.28195 4.38455 3.27696 4.38359 3.27163C4.3682 3.1861 4.33679 3.0116 4.33409 2.81304C4.33315 2.80596 4.33163 2.79476 4.32926 2.77841C4.32883 2.77543 4.32832 2.77199 4.32775 2.76813C4.31985 2.7148 4.29996 2.58042 4.29996 2.43138V1.82047C4.29996 1.16451 4.83172 0.632751 5.48768 0.632751Z"
            fill="#EA0303" />
    </symbol>
</svg>